name C:\Users\r0593348\3dpredictsim\Results\MidTarsalJoint\Fal_s1_bCst_PF_Natali2010_ls150_MT_k250_MTP_T5_ig21.mot
datacolumns 128
datarows 4
range 1.71602030 1.75034071
endheader
time	pelvis_tilt	pelvis_list	pelvis_rotation	pelvis_tx	pelvis_ty	pelvis_tz	hip_flexion_l	hip_adduction_l	hip_rotation_l	hip_flexion_r	hip_adduction_r	hip_rotation_r	knee_angle_l	knee_angle_r	ankle_angle_l	ankle_angle_r	subtalar_angle_l	subtalar_angle_r	mtj_angle_l	mtj_angle_r	mtp_angle_l	mtp_angle_r	lumbar_extension	lumbar_bending	lumbar_rotation	arm_flex_l	arm_add_l	arm_rot_l	arm_flex_r	arm_add_r	arm_rot_r	elbow_flex_l	elbow_flex_r	pro_sup_l	pro_sup_r	glut_med1_l/activation	glut_med2_l/activation	glut_med3_l/activation	glut_min1_l/activation	glut_min2_l/activation	glut_min3_l/activation	semimem_l/activation	semiten_l/activation	bifemlh_l/activation	bifemsh_l/activation	sar_l/activation	add_long_l/activation	add_brev_l/activation	add_mag1_l/activation	add_mag2_l/activation	add_mag3_l/activation	tfl_l/activation	pect_l/activation	grac_l/activation	glut_max1_l/activation	glut_max2_l/activation	glut_max3_l/activation	iliacus_l/activation	psoas_l/activation	quad_fem_l/activation	gem_l/activation	peri_l/activation	rect_fem_l/activation	vas_med_l/activation	vas_int_l/activation	vas_lat_l/activation	med_gas_l/activation	lat_gas_l/activation	soleus_l/activation	tib_post_l/activation	flex_dig_l/activation	flex_hal_l/activation	tib_ant_l/activation	per_brev_l/activation	per_long_l/activation	per_tert_l/activation	ext_dig_l/activation	ext_hal_l/activation	ercspn_l/activation	intobl_l/activation	extobl_l/activation	glut_med1_r/activation	glut_med2_r/activation	glut_med3_r/activation	glut_min1_r/activation	glut_min2_r/activation	glut_min3_r/activation	semimem_r/activation	semiten_r/activation	bifemlh_r/activation	bifemsh_r/activation	sar_r/activation	add_long_r/activation	add_brev_r/activation	add_mag1_r/activation	add_mag2_r/activation	add_mag3_r/activation	tfl_r/activation	pect_r/activation	grac_r/activation	glut_max1_r/activation	glut_max2_r/activation	glut_max3_r/activation	iliacus_r/activation	psoas_r/activation	quad_fem_r/activation	gem_r/activation	peri_r/activation	rect_fem_r/activation	vas_med_r/activation	vas_int_r/activation	vas_lat_r/activation	med_gas_r/activation	lat_gas_r/activation	soleus_r/activation	tib_post_r/activation	flex_dig_r/activation	flex_hal_r/activation	tib_ant_r/activation	per_brev_r/activation	per_long_r/activation	per_tert_r/activation	ext_dig_r/activation	ext_hal_r/activation	ercspn_r/activation	intobl_r/activation	extobl_r/activation	
          1.71602030	         -2.92848088	          2.20298337	         -5.80357203	          2.14502537	          0.91854781	          0.00179763	         28.34681052	          3.70102202	         -2.80983563	        -16.55067875	         -1.35312269	          6.82063494	        -10.70267290	        -10.59752056	          4.43931931	         -3.41442628	         -3.67813121	         10.17388988	         -0.28046024	          3.88072119	          0.77383816	         14.20962282	         -1.84582576	         -0.54014532	          2.19651736	         -5.70023531	        -13.44976305	          7.47594641	          4.77354850	        -13.46606440	         17.20878605	         15.36711186	         35.96995327	         86.51662706	         86.51662706	          0.05000000	          0.05000001	          0.11464647	          0.05000002	          0.05000002	          0.05000002	          0.17698431	          0.07110544	          0.11357329	          0.05024833	          0.05953937	          0.14205678	          0.32147506	          0.34623217	          0.21625587	          0.11187287	          0.05000013	          0.07571864	          0.14928899	          0.05000160	          0.09727405	          0.13912339	          0.05000006	          0.05953354	          0.58058869	          0.24972381	          0.11238565	          0.05953360	          0.11573251	          0.12187200	          0.10018366	          0.06705876	          0.07088444	          0.05966701	          0.05953325	          0.05000094	          0.05953298	          0.49016349	          0.29962394	          0.19923492	          0.12783556	          0.41078208	          0.17977063	          0.05000000	          0.09656734	          0.08319328	          0.21062362	          0.08440005	          0.05953352	          0.23855414	          0.16215082	          0.08477202	          0.05000095	          0.05000035	          0.05000069	          0.05000004	          0.09230273	          0.18109733	          0.05953386	          0.05953380	          0.05953369	          0.05953358	          0.25935396	          0.07863355	          0.05017820	          0.05003365	          0.05267789	          0.05953353	          0.33857615	          0.58950065	          0.05953369	          0.05953402	          0.05314220	          0.22005166	          0.13610316	          0.13181232	          0.13190751	          0.22756870	          0.31084000	          0.27891366	          0.22037364	          0.20142394	          0.26897571	          0.05000000	          0.05000006	          0.13528374	          0.05000003	          0.05000001	          0.05000005	          0.06463782	          0.07088448	          0.06394801	
          1.72746044	         -2.92208306	          2.28550436	         -6.03672470	          2.16271498	          0.91770365	          0.00162804	         27.55682512	          3.96700753	         -2.54410847	        -16.39211385	         -1.64990498	          6.63805454	        -11.21142955	        -12.53434418	          3.88902589	         -4.11408147	         -4.06648486	         11.16849956	         -0.40513583	          2.70774714	          0.79077926	         16.19194021	         -1.61806743	         -0.74609508	          2.25727153	         -6.63200786	        -13.45699377	          7.32713518	          4.35506241	        -13.47438782	         17.38979115	         15.04889068	         37.16384253	         86.51662706	         86.51662706	          0.24954732	          0.25754111	          0.31051869	          0.42362819	          0.26147973	          0.23160769	          0.14983007	          0.05971922	          0.09617401	          0.05953345	          0.05000507	          0.11930840	          0.26999536	          0.29078799	          0.18162562	          0.12364165	          0.05000019	          0.06359357	          0.12538257	          0.05000018	          0.11353033	          0.11684486	          0.05005986	          0.05000024	          0.48761557	          0.20973409	          0.21819695	          0.05000015	          0.09719965	          0.10235599	          0.08414072	          0.05632025	          0.05953331	          0.05011219	          0.05000002	          0.05000015	          0.05000017	          0.54915179	          0.31548796	          0.16733029	          0.38542026	          0.49218615	          0.15098306	          0.06500766	          0.11806116	          0.06987105	          0.31950124	          0.07088459	          0.05000013	          0.32002908	          0.13618471	          0.07119700	          0.05000059	          0.05000007	          0.05000005	          0.05000037	          0.07754642	          0.15209717	          0.05000042	          0.05000035	          0.05000038	          0.05000018	          0.26595665	          0.06604451	          0.05000038	          0.05000064	          0.05000036	          0.05000027	          0.28435806	          0.56010194	          0.05000024	          0.05000063	          0.05000011	          0.18481348	          0.11430818	          0.11070446	          0.11078440	          0.19112677	          0.26106334	          0.23424955	          0.18508391	          0.16916877	          0.22590307	          0.05000037	          0.06408019	          0.16288973	          0.05000021	          0.08581015	          0.05000021	          0.05719006	          0.05953333	          0.05370764	
          1.73890057	         -2.91295847	          2.36323646	         -6.23301300	          2.18049281	          0.91689668	          0.00143266	         26.72207605	          4.20222999	         -2.27812072	        -16.12901647	         -1.93599579	          6.46906591	        -11.68433748	        -14.61395648	          3.45048959	         -4.95078064	         -4.45638860	         12.13320545	         -0.33186278	          1.43539225	          0.81389870	         18.14580418	         -1.39266725	         -0.95354261	          2.30726149	         -7.54226122	        -13.46580121	          7.23881350	          3.88841450	        -13.48993876	         17.50943325	         14.75447847	         38.33521511	         86.51662706	         86.51662706	          0.35208513	          0.34807715	          0.36893944	          0.35579015	          0.21960772	          0.21528348	          0.12583811	          0.08126310	          0.08704323	          0.05000038	          0.05000035	          0.10020285	          0.22675941	          0.24422246	          0.15254110	          0.15895584	          0.05000014	          0.05341011	          0.10530443	          0.21456329	          0.17957646	          0.15148545	          0.05000003	          0.05000003	          0.40953080	          0.17614815	          0.18325589	          0.05000003	          0.12836905	          0.13817859	          0.10312633	          0.05000001	          0.05000003	          0.05000000	          0.05000001	          0.05000005	          0.05000005	          0.61339000	          0.28453316	          0.15099367	          0.55283343	          0.52697050	          0.27709523	          0.07979141	          0.09915533	          0.05868219	          0.26833766	          0.05953344	          0.05000004	          0.26878098	          0.11437668	          0.05979582	          0.05000076	          0.05000009	          0.05000009	          0.05000005	          0.06512853	          0.15013974	          0.12352841	          0.05001441	          0.05000359	          0.05001116	          0.22336754	          0.05956213	          0.05000035	          0.05000088	          0.05000061	          0.05000051	          0.23882212	          0.49873333	          0.05000008	          0.05000029	          0.05000008	          0.15521820	          0.11965325	          0.11965323	          0.10910943	          0.16052050	          0.21925771	          0.19673777	          0.15544534	          0.14207882	          0.18972790	          0.10554324	          0.12734355	          0.13680549	          0.05000050	          0.15469719	          0.05000122	          0.07705976	          0.05000000	          0.05000001	
          1.75034071	         -2.90197963	          2.43683201	         -6.39366504	          2.19815109	          0.91619762	          0.00120780	         25.92605145	          4.44671664	         -2.00942337	        -15.72752660	         -2.20377645	          6.30861919	        -12.19969217	        -16.86542429	          2.95259577	         -5.92442584	         -4.85596159	         13.04227247	         -0.38088833	          0.13029693	          0.82750397	         19.83071173	         -1.18564832	         -1.16543062	          2.34971847	         -8.39010125	        -13.47485084	          7.19949073	          3.41919646	        -13.50911059	         17.60522093	         14.46486350	         39.43552082	         86.51662706	         86.51662706	          0.44931423	          0.45009394	          0.47388797	          0.31999150	          0.24634023	          0.35453365	          0.10568697	          0.09610016	          0.08274467	          0.05951131	          0.05000013	          0.08415679	          0.19044714	          0.21194267	          0.22675557	          0.18544768	          0.05000011	          0.05000546	          0.10148011	          0.27748530	          0.22263978	          0.19353213	          0.05000004	          0.05000003	          0.34395020	          0.14794052	          0.20969578	          0.05000002	          0.21821708	          0.22705339	          0.17947946	          0.05000001	          0.05000004	          0.05000000	          0.06571895	          0.05954460	          0.05000050	          0.69717386	          0.23896918	          0.12681416	          0.46430498	          0.50798859	          0.31482848	          0.09457264	          0.08327700	          0.05000001	          0.22536719	          0.05000006	          0.05000002	          0.22573953	          0.09606089	          0.05022039	          0.05000066	          0.05000009	          0.05000012	          0.05000003	          0.05469921	          0.16843885	          0.18993463	          0.05000032	          0.05000371	          0.11965390	          0.18759853	          0.05002451	          0.05000012	          0.05000068	          0.05000047	          0.05000027	          0.20057812	          0.44938782	          0.05000003	          0.05000016	          0.05000004	          0.13036219	          0.10049249	          0.10049247	          0.09163711	          0.13481540	          0.18414667	          0.16523298	          0.13055297	          0.11932696	          0.15934569	          0.17799588	          0.13107693	          0.12990354	          0.12183235	          0.21584134	          0.12098652	          0.10456664	          0.05000000	          0.05000001	
